<svg xmlns="http://www.w3.org/2000/svg" viewBox="0 0 512 512">
  <rect width="512" height="512" rx="104" fill="#0f0e0c"/>
  <g transform="translate(113, 70) scale(0.8)">
    <path fill="#c5a368" d="M5.428.289C16.507-.244,30.851.12,42.141.134l60.305.073.003.763c.002.742.041,3.913-.295,4.115-2.287,1.374-7.777,1.446-10.459,2.167-8.54,2.295-14.386,7.812-14.963,16.88-1.169,18.344-.506,36.918-.438,55.305l-.048,59.476c-.014,9.421-.184,18.442-.01,27.898,3.246-2.34,7.165-6.284,10.334-8.975,10.255-8.704,19.672-18.316,29.516-27.388,14.125-13.018,28.25-25.966,41.987-39.408,4.179-4.323,8.574-7.22,11.835-12.294,8.109-12.616-14.472-8.969-9.495-15.547,2.093-.321,7.844-.164,10.18-.159l16.862-.058,36.912.055c2.795.024,10.001-.647,11.948.59,2.716,4.064-3.479,4.301-5.903,4.617-16.113,2.097-26.898,15.233-38.277,25.886l-30.717,28.627c-3.781,3.514-7.649,6.808-11.322,10.46-5.622,5.591-12.354,10.715-17.659,16.575l-.256.286c2.14,3.927,10.28,13.73,13.365,17.622l21.945,27.988,59.586,76.373c8.74,11.269,17.38,21.964,26.044,33.467.773-.897,1.494-1.839,2.158-2.819,7.722-11.449,15.437-23.753,22.993-35.433,6.758-10.447,15.597-22.196,20.368-33.597.926-2.212.822-7.309.334-9.578-1.335-6.716-7.429-9.245-13.491-10.367-2.324-.43-5.859-1.109-6.249-3.826.131-.352.346-1.132.615-1.249,3.143-1.369,12.767-.787,15.592-.77,7.455.085,14.91.099,22.365.041l24.774-.028c4.306-.004,10.838-.188,14.933.163-.003.906.041,3.71-.448,4.164-1.27,1.179-6.995,1.914-8.666,2.238-6.087,1.181-10.197,4.561-14.699,8.52-1.468,1.29-2.696,3.119-3.937,4.629-5.971,7.819-11.199,16.269-16.969,24.233-5.358,7.396-10.686,14.702-15.578,22.422-1.182,1.866-2.63,3.444-3.8,5.341-8.233,13.233-18.282,26.38-26.852,39.48-2.817,4.305-6.598,8.961-8.966,13.517-.314.604-.425,3.317-.426,4.123-.019,21.216.023,42.461.015,63.674l-.014,24.227c-.002,11.902-1.172,28.842,12.956,33.756,2.311.804,5.7.961,7.61,2.567,1.54,2.752-.015,4.166-2.879,4.161-13.542-.02-27.089-.082-40.634-.071l-26.802.103c-3.652.02-15.121.476-18.03-.537-.41-.577-.537-1.279-.544-1.996-.014-4.692,6.043-2.881,8.952-4.125,13.251-5.667,11.412-24.365,11.435-36.035l-.022-29.561c.111-15.569.137-31.139.077-46.708-.011-3.583.569-21.886-.997-23.915-4.005-5.189-9.398-11.839-13.551-17.134l-29.963-37.504c-4.219-5.199-8.6-10.315-12.762-15.55l-43.158-53.64-9.379-11.617c-2.716-3.411-5.425-7.107-8.642-10.021-.693.749-1.602,1.505-2.395,2.153-4.205,3.434-8.032,7.1-11.906,10.894-.096.634-.182,1.293-.207,1.934-.419,10.724-.176,21.258-.129,31.937l-.053,31.931c.026,6.808-.055,14.009-.109,20.795-.164,20.762.676,35.962,25.583,36.91.075,2.13.05,3.305-.14,5.426-5.159.515-14.383.242-19.85.226l-35.272-.09-26.897.058c-5.675.019-11.911.36-17.511-.581-1.261-.211-1.584-2.548-1.138-3.514.574-1.243,3.091-1.45,4.298-1.699,14.268-1.698,20.099-10.888,20.604-24.531.339-9.144.25-18.022.196-27.118l-.041-29.901-.057-88.945-.071-77.33c-.01-12.213.361-24.48-.068-36.703-.11-3.131-.789-7.796-2.036-10.712-3.031-7.086-7.563-10.237-15.134-11.343-2.582-.401-4.997-.407-7.461-1.373C-.443,4.647-.075,2.151.519,1.147,1.022.299,4.228.418,5.428.289Z"/>
  </g>
</svg>
